# xmcd
#
# Track frame offsets: 
#        150
#        18060
#        36697
#        55665
#        77565
#        100175
#        115635
#        133810
#        149502
#        166785
#        180545
#        207410
#        221507
#        249067
#
# Disc length: 3548 seconds
#
# Revision: 3
# Processed by: cddbd v1.5.2PL0 Copyright (c) Steve Scherf et al.
# Submitted via: ExactAudioCopy v0.99pb5
#
DISCID=b80dda0e
DTITLE=Tish Hinojosa - Aquella Noche
DYEAR=2001
DGENRE=Folk
TTITLE0=Tu Que Puedes, Vuélvete (You Who Can, Return)
TTITLE1=Cumbia, Polka y Más (Cumbia, Polka and More)
TTITLE2=Manos, Huesos y Sangre (Hands, Bones and Blood)
TTITLE3=Reloj (Clock)
TTITLE4=La Llorona (Weeping Woman)
TTITLE5=Azul Cristal (Crystal Blue)
TTITLE6=Aquella Noche (That Certain Night)
TTITLE7=Historia de un Amor (Story of Love)
TTITLE8=Una Noche Mas (One More Night)
TTITLE9=Años, Meses y Dias (Years, Months and Days)
TTITLE10=Carlos Dominguez
TTITLE11=Samba San Pedro
TTITLE12=Malagueña Salerosa (Enchanting Woman from Malaga)
TTITLE13=Estrellita (Little Star)
EXTD=
EXTT0=
EXTT1=
EXTT2=
EXTT3=
EXTT4=
EXTT5=
EXTT6=
EXTT7=
EXTT8=
EXTT9=
EXTT10=
EXTT11=
EXTT12=
EXTT13=
PLAYORDER=
